<svg xmlns="http://www.w3.org/2000/svg" width="16" height="16" viewBox="0 0 16 16"><defs><mask id="lbu4b" width="2" height="2" x="-1" y="-1"><path fill="#fff" d="M5 5h6v6H5z"/><path d="M8 5a3 3 0 1 1 0 6 3 3 0 0 1 0-6z"/></mask><filter id="lbu4a" width="28.6" height="28.8" x="-6" y="-6" filterUnits="userSpaceOnUse"><feOffset dx=".6" dy=".8" in="SourceGraphic" result="FeOffset1028Out"/><feGaussianBlur in="FeOffset1028Out" result="FeGaussianBlur1029Out" stdDeviation="0.4 0.4"/></filter></defs><g><g><path fill="#007bff" d="M8 0a8 8 0 1 1 0 16A8 8 0 0 1 8 0z"/></g><g><g filter="url(#lbu4a)"><path fill="none" d="M8 5a3 3 0 1 1 0 6 3 3 0 0 1 0-6z" mask="url(&quot;#lbu4b&quot;)"/><path fill-opacity=".3" d="M8 5a3 3 0 1 1 0 6 3 3 0 0 1 0-6z"/></g><path fill="#fff" d="M8 5a3 3 0 1 1 0 6 3 3 0 0 1 0-6z"/></g></g></svg>